<svg id="visual" viewBox="0 0 900 600" width="900" height="600" xmlns="http://www.w3.org/2000/svg" xmlns:xlink="http://www.w3.org/1999/xlink" version="1.1"><rect x="0" y="0" width="900" height="600" fill="#264653"></rect><defs><linearGradient id="grad1_0" x1="33.3%" y1="0%" x2="100%" y2="100%"><stop offset="20%" stop-color="#264653" stop-opacity="1"></stop><stop offset="80%" stop-color="#264653" stop-opacity="1"></stop></linearGradient></defs><defs><linearGradient id="grad2_0" x1="0%" y1="0%" x2="66.7%" y2="100%"><stop offset="20%" stop-color="#264653" stop-opacity="1"></stop><stop offset="80%" stop-color="#264653" stop-opacity="1"></stop></linearGradient></defs><g transform="translate(900, 0)"><path d="M0 486.7C-71.6 488.4 -143.1 490 -186.3 449.7C-229.4 409.4 -244.2 327.2 -275.8 275.8C-307.3 224.4 -355.6 203.8 -393.6 163C-431.5 122.2 -459.1 61.1 -486.7 0L0 0Z" fill="#f4a261"></path></g><g transform="translate(0, 600)"><path d="M0 -486.7C49 -443 98.1 -399.3 157.7 -380.6C217.3 -362 287.4 -368.4 340.1 -340.1C392.8 -311.8 428.2 -248.7 449.7 -186.3C471.2 -123.8 479 -61.9 486.7 0L0 0Z" fill="#f4a261"></path></g></svg>