<?xml version="1.0" encoding="iso-8859-1"?>
<!-- Generator: Adobe Illustrator 18.0.0, SVG Export Plug-In . SVG Version: 6.00 Build 0)  -->
<!DOCTYPE svg PUBLIC "-//W3C//DTD SVG 1.1//EN" "http://www.w3.org/Graphics/SVG/1.1/DTD/svg11.dtd">
<svg version="1.1" id="Capa_1" xmlns="http://www.w3.org/2000/svg" xmlns:xlink="http://www.w3.org/1999/xlink" x="0px" y="0px"
	 viewBox="0 0 297 297" style="enable-background:new 0 0 297 297;" xml:space="preserve">
<g>
	<rect x="51.95" y="195.795" width="63.713" height="41.658"/>
	<path d="M35.287,121.3H2.941C1.319,121.3,0,122.619,0,124.24v113.213c0,1.622,1.319,2.941,2.941,2.941h32.347
		c1.622,0,2.941-1.319,2.941-2.941V124.24C38.228,122.619,36.909,121.3,35.287,121.3z"/>
	<path d="M164.673,121.3h-32.347c-1.622,0-2.941,1.319-2.941,2.941v113.213c0,1.622,1.319,2.941,2.941,2.941h32.347
		c1.622,0,2.941-1.319,2.941-2.941V124.24C167.614,122.619,166.295,121.3,164.673,121.3z"/>
	<rect x="181.337" y="195.795" width="63.713" height="41.658"/>
	<path d="M108.067,276.171H93.609v-20.584H74.005v20.584H59.547c-5.413,0-9.802,4.389-9.802,9.802c0,5.413,4.389,9.802,9.802,9.802
		h48.52c5.413,0,9.802-4.389,9.802-9.802C117.869,280.56,113.48,276.171,108.067,276.171z"/>
	<path d="M237.453,276.171h-14.458v-20.584h-19.604v20.584h-14.458c-5.413,0-9.802,4.389-9.802,9.802
		c0,5.413,4.389,9.802,9.802,9.802h48.52c5.413,0,9.802-4.389,9.802-9.802C247.255,280.56,242.866,276.171,237.453,276.171z"/>
	<path d="M35.287,107.577c9.188,0,16.663,7.475,16.663,16.663v57.832h63.713V124.24c0-9.188,7.475-16.663,16.663-16.663h9.312
		V28.846c-13.666-16.837-34.507-27.62-57.832-27.62c-41.076,0-74.495,33.419-74.495,74.495v31.856H35.287z"/>
	<path d="M155.361,107.577h9.312c9.188,0,16.663,7.475,16.663,16.663v57.832h63.713V124.24c0-9.188,7.475-16.663,16.663-16.663
		h25.975V75.72c0-41.076-33.419-74.495-74.495-74.495c-23.324,0-44.166,10.784-57.832,27.62V107.577z"/>
	<path d="M258.772,124.24v113.213c0,1.622,1.319,2.941,2.941,2.941h32.347c1.622,0,2.941-1.319,2.941-2.941V124.24
		c0-1.622-1.319-2.941-2.941-2.941h-32.347C260.091,121.3,258.772,122.619,258.772,124.24z"/>
</g>
<g>
</g>
<g>
</g>
<g>
</g>
<g>
</g>
<g>
</g>
<g>
</g>
<g>
</g>
<g>
</g>
<g>
</g>
<g>
</g>
<g>
</g>
<g>
</g>
<g>
</g>
<g>
</g>
<g>
</g>
</svg>
