<svg xmlns="http://www.w3.org/2000/svg" width="64" height="64" id="paypal"><path fill="#263B80" d="M50.3 5.9c-2.8-3.2-8-4.6-14.5-4.6H16.7c-1.3 0-2.5 1-2.7 2.3L6 54c-.2 1 .6 1.9 1.6 1.9h11.8l3-18.8-.1.6c.2-1.3 1.3-2.3 2.7-2.3h5.6c11 0 19.6-4.5 22.1-17.4.1-.4.1-.8.2-1.1-.3-.2-.3-.2 0 0 .7-4.8 0-8-2.6-11"></path><path fill="#139AD6" d="M52.9 16.9c-.1.4-.1.7-.2 1.1-2.5 12.9-11.1 17.4-22.1 17.4H25c-1.3 0-2.5 1-2.7 2.3L18.6 61c-.1.9.5 1.7 1.4 1.7h9.9c1.2 0 2.2-.9 2.4-2l.1-.5 1.9-11.8.1-.7c.2-1.2 1.2-2 2.4-2h1.5c9.6 0 17.1-3.9 19.3-15.2.9-4.7.4-8.7-2-11.4-.8-.9-1.7-1.6-2.7-2.2"></path><path fill="#232C65" d="m50.2 15.9-1.2-.3c-.4-.1-.8-.2-1.3-.2-1.5-.3-3.2-.4-4.9-.4H27.9c-.4 0-.7.1-1 .2-.7.3-1.2 1-1.3 1.8l-3.2 20.1-.1.6c.2-1.3 1.3-2.3 2.7-2.3h5.6c11 0 19.6-4.5 22.1-17.4.1-.4.1-.8.2-1.1-.6-.3-1.3-.6-2.1-.9-.2 0-.4-.1-.6-.1"></path><path fill="#2A4DAD" d="M35.7 1.3h-19c-1.3 0-2.5 1-2.7 2.3L9.4 32.4 40.2 1.6c-1.4-.2-2.9-.3-4.5-.3z"></path><path fill="#0D7DBC" d="M56.5 20.5c-.3-.5-.5-1-.9-1.5-.7-.8-1.7-1.5-2.7-2.1-.1.4-.1.7-.2 1.1-2.5 12.9-11.1 17.4-22.1 17.4H25c-1.3 0-2.5 1-2.7 2.3l-3.2 20.2 37.4-37.4z"></path><path fill="#232C65" d="M7.6 55.9h11.8l2.9-18.2c0-.3.1-.5.2-.7L6.1 53.4 6 54c-.1 1 .6 1.9 1.6 1.9z"></path><path fill="#436BC4" d="M32.1 1.3H16.7c-.4 0-.7.1-1 .2L14.2 3c-.1.2-.2.4-.2.6l-3 18.8L32.1 1.3z"></path><g fill="#0CB2ED"><path d="M57.6 30.4c.3-1.5.4-2.9.4-4.3L38.5 45.6c9.5-.1 16.9-4 19.1-15.2zM32.4 60.2l1.6-10-12.5 12.5H30c1.2 0 2.2-.9 2.4-2v-.5z"></path></g><g fill="#33E2FF" opacity=".6"><path d="m52.3 19.6 5.7 5.7c0-.7-.2-1.4-.3-2.1l-5-5c-.2.5-.3.9-.4 1.4zM50.9 23.8l-.6 1.2 6.9 6.9.3-1.5-6.6-6.6zM55.2 37.2l.6-1.2-7.6-7.6c-.3.3-.5.7-.8 1l7.8 7.8zM43.2 32.6l8.7 8.7.9-.9-8.5-8.5c-.4.2-.7.4-1.1.7zM37.9 34.6l9.5 9.5 1.2-.6-9.3-9.3c-.5.1-.9.3-1.4.4zM41.4 45.5c.5-.1 1.1-.1 1.6-.2l-10-10c-.6 0-1.1.1-1.7.1l10.1 10.1zM25.8 35.4H25c-.3 0-.6.1-.8.1L35 46.4c.3-.3.7-.6 1.1-.7L25.8 35.4zM21.8 40.6l11.8 11.8.3-1.6L22.1 39zM20.8 46.9l11.8 11.8.3-1.5-11.8-11.8zM20.1 51.7l-.2 1.6 9.4 9.4h.7c.3 0 .6-.1.9-.2L20.1 51.7zM18.8 59.6l3.1 3.1h1.8l-4.6-4.6z"></path></g></svg>