<?xml version="1.0" standalone="no"?><svg xmlns="http://www.w3.org/2000/svg" viewBox="0 0 1440 320"><path fill="#264653" fill-opacity="1" d="M0,96L18.5,128C36.9,160,74,224,111,240C147.7,256,185,224,222,186.7C258.5,149,295,107,332,80C369.2,53,406,43,443,64C480,85,517,139,554,165.3C590.8,192,628,192,665,176C701.5,160,738,128,775,112C812.3,96,849,96,886,96C923.1,96,960,96,997,85.3C1033.8,75,1071,53,1108,58.7C1144.6,64,1182,96,1218,112C1255.4,128,1292,128,1329,122.7C1366.2,117,1403,107,1422,101.3L1440,96L1440,320L1421.5,320C1403.1,320,1366,320,1329,320C1292.3,320,1255,320,1218,320C1181.5,320,1145,320,1108,320C1070.8,320,1034,320,997,320C960,320,923,320,886,320C849.2,320,812,320,775,320C738.5,320,702,320,665,320C627.7,320,591,320,554,320C516.9,320,480,320,443,320C406.2,320,369,320,332,320C295.4,320,258,320,222,320C184.6,320,148,320,111,320C73.8,320,37,320,18,320L0,320Z"></path></svg>